<?xml version="1.0" encoding="UTF-8" standalone="no"?>
<svg
   xmlns:dc="http://purl.org/dc/elements/1.1/"
   xmlns:cc="http://creativecommons.org/ns#"
   xmlns:rdf="http://www.w3.org/1999/02/22-rdf-syntax-ns#"
   xmlns:svg="http://www.w3.org/2000/svg"
   xmlns="http://www.w3.org/2000/svg"
   xmlns:sodipodi="http://sodipodi.sourceforge.net/DTD/sodipodi-0.dtd"
   xmlns:inkscape="http://www.inkscape.org/namespaces/inkscape"
   viewBox="0 0 646.21892 228.27733"
   height="228.27733"
   width="646.21893"
   xml:space="preserve"
   id="svg2"
   version="1.1"
   inkscape:version="0.91 r13725"
   sodipodi:docname="logo_640×220.svg"><sodipodi:namedview
     pagecolor="#ffffff"
     bordercolor="#666666"
     borderopacity="1"
     objecttolerance="10"
     gridtolerance="10"
     guidetolerance="10"
     inkscape:pageopacity="0"
     inkscape:pageshadow="2"
     inkscape:window-width="1366"
     inkscape:window-height="744"
     id="namedview44"
     showgrid="false"
     fit-margin-top="20"
     fit-margin-left="20"
     fit-margin-right="20"
     fit-margin-bottom="20"
     inkscape:zoom="0.26547411"
     inkscape:cx="-441.95063"
     inkscape:cy="-183.69077"
     inkscape:window-x="0"
     inkscape:window-y="24"
     inkscape:window-maximized="1"
     inkscape:current-layer="svg2" /><metadata
     id="metadata8"><rdf:RDF><cc:Work
         rdf:about=""><dc:format>image/svg+xml</dc:format><dc:type
           rdf:resource="http://purl.org/dc/dcmitype/StillImage" /><dc:title></dc:title></cc:Work></rdf:RDF></metadata><defs
     id="defs6"><clipPath
       id="clipPath22"
       clipPathUnits="userSpaceOnUse"><path
         id="path20"
         d="m 0,595.28 841.89,0 L 841.89,0 0,0 Z"
         inkscape:connector-curvature="0" /></clipPath></defs><g
     transform="matrix(1.3333333,0,0,-1.3333333,-238.30266,511.58719)"
     id="g10"><g
       transform="translate(321.856,247.3994)"
       id="g12"><path
         id="path14"
         style="fill:#f47216;fill-opacity:1;fill-rule:nonzero;stroke:none"
         d="m 0,0 -1.02,0 -2.455,0 0,104.875 2.455,0 1.02,0 z m -3.553,104.944 -105.014,0 0,3.423 105.014,0 z m -9.837,-9.933 0,-3.267 -3.38,0 0,-3.372 -3.259,0 0,3.372 -3.388,0 0,3.267 3.388,0 0,3.389 3.259,0 0,-3.389 z m -55.93,-13.13 0,3.232 -3.199,0 0,6.527 3.199,0 0,3.371 26.34,0 0,-3.371 3.189,0 0,-6.527 -3.189,0 0,-3.232 -3.277,0 0,-32.806 3.277,0 0,-3.173 3.189,0 0,-3.474 3.346,0 0,-3.164 3.258,0 0,-3.372 3.277,0 0,-3.259 3.363,0 0,-3.353 3.276,0 0,-3.295 3.164,0 0,-13.053 -3.164,0 0,-3.284 -65.759,0 0,3.284 -3.173,0 0,13.053 3.173,0 0,3.295 3.268,0 0,3.353 3.363,0 0,3.259 3.267,0 0,3.372 3.276,0 0,3.164 3.337,0 0,3.474 3.199,0 0,3.173 3.268,0 0,32.806 z m 65.767,-85.356 -105.014,0 0,3.25 105.014,0 z M -108.636,0 l -2.447,0 -0.993,0 0,104.875 0.993,0 2.447,0 z m 124.697,85.113 0,6.527 -6.5,0 0,3.32 -3.172,0 0,9.958 -3.251,0 0,3.527 -3.121,0 0,3.043 -3.509,0 0,3.267 -9.881,0 0,6.536 -6.535,0 0,-6.536 -13.201,0 0,6.536 -6.543,0 0,-6.536 -13.192,0 0,6.536 -6.544,0 0,-6.536 -13.2,0 0,6.536 -6.535,0 0,-6.536 -13.2,0 0,6.536 -6.536,0 0,-6.536 -9.777,0 0,-3.267 -3.492,0 0,-3.043 -3.121,0 0,-3.527 -3.207,0 0,-9.958 -3.173,0 0,-3.32 -6.5,0 0,-6.527 6.587,0 0,3.312 3.086,0 0,-13.201 -3.173,0 0,-3.311 -6.5,0 0,-6.535 6.587,0 0,3.311 3.086,0 0,-13.201 -3.173,0 0,-3.319 -6.5,0 0,-6.526 6.587,0 0,3.31 3.086,0 0,-13.208 -3.173,0 0,-3.31 -6.5,0 0,-6.536 6.587,0 0,3.312 3.086,0 0,-13.184 -3.173,0 0,-3.319 -6.5,0 0,-6.534 6.587,0 0,3.319 3.086,0 0,-9.804 3.207,0 0,-3.25 3.121,0 0,-3.043 3.492,0 0,-3.25 9.777,0 0,-10.063 6.536,0 0,10.063 13.2,0 0,-10.063 6.535,0 0,10.063 13.2,0 0,-10.063 6.544,0 0,10.063 13.192,0 0,-10.063 6.543,0 0,10.063 13.201,0 0,-10.063 6.535,0 0,10.063 9.881,0 0,3.25 3.509,0 0,2.819 3.104,0 0,0.224 0.017,0 0,3.25 3.251,0 0,9.804 3.086,0 0,-3.319 6.586,0 0,6.534 -6.5,0 0,3.319 -3.172,0 0,13.184 3.086,0 0,-3.312 6.586,0 0,6.536 -6.5,0 0,3.31 -3.172,0 0,13.208 3.086,0 0,-3.31 6.586,0 0,6.526 -6.5,0 0,3.319 -3.172,0 0,13.201 3.086,0 0,-3.311 6.586,0 0,6.535 -6.5,0 0,3.311 -3.172,0 0,13.201 3.086,0 0,-3.312 z"
         inkscape:connector-curvature="0" /></g><g
       id="g16"><g
         clip-path="url(#clipPath22)"
         id="g18"><g
           transform="translate(411.8892,306.3027)"
           id="g24"><path
             id="path26"
             style="fill:#264a95;fill-opacity:1;fill-rule:nonzero;stroke:none"
             d="m 0,0 -20.825,0 c -1.331,0 -2.525,1.193 -2.525,2.524 l 0,40.924 c 0,1.331 1.194,2.524 2.525,2.524 l 20.825,0 c 1.737,0 2.533,-1.254 2.533,-2.524 0,-1.263 -0.796,-2.534 -2.533,-2.534 l -18.292,0 0,-14.635 12.707,0 c 1.66,0 2.533,-1.261 2.533,-2.524 0,-1.271 -0.873,-2.532 -2.533,-2.532 l -12.707,0 0,-16.166 18.292,0 C 1.737,5.057 2.533,3.795 2.533,2.524 2.533,1.263 1.737,0 0,0"
             inkscape:connector-curvature="0" /></g><g
           transform="translate(458.0654,305.9053)"
           id="g28"><path
             id="path30"
             style="fill:#264a95;fill-opacity:1;fill-rule:nonzero;stroke:none"
             d="m 0,0 c -1.254,0 -2.523,0.865 -2.523,2.524 l 0,19.692 c 0,3.665 -2.266,5.594 -5.646,5.594 l -0.614,0 c -3.19,0 -5.713,-2.464 -5.713,-5.724 l 0,-19.433 C -14.496,0.924 -15.768,0 -17.029,0 c -1.254,0 -2.526,0.924 -2.526,2.653 l 0,19.433 c 0,3.329 -2.531,5.724 -5.731,5.724 l -0.596,0 c -2.978,0 -5.721,-2.067 -5.721,-5.126 l 0,-20.16 C -31.603,0.865 -32.854,0 -34.126,0 c -1.271,0 -2.533,0.865 -2.533,2.524 l 0,27.809 c 0,1.6 1.262,2.533 2.594,2.533 1.072,0 2.196,-0.665 2.462,-1.988 1.203,1.185 3.397,1.988 5.721,1.988 l 0.596,0 c 3.338,0 6.267,-1.46 8.257,-3.795 1.997,2.335 4.926,3.795 8.246,3.795 l 0.614,0 c 5.646,0 10.702,-3.328 10.702,-10.65 l 0,-19.692 C 2.533,0.865 1.271,0 0,0"
             inkscape:connector-curvature="0" /></g><g
           transform="translate(487.9492,328.0605)"
           id="g32"><path
             id="path34"
             style="fill:#264a95;fill-opacity:1;fill-rule:nonzero;stroke:none"
             d="m 0,0 c 0,3.122 -2.523,5.654 -5.713,5.654 l -0.614,0 c -2.99,0 -5.653,-2.066 -5.653,-5.126 l 0,-12.37 c 0,-3.268 2.663,-5.264 5.653,-5.264 l 0.614,0 c 3.19,0 5.713,2.532 5.713,5.661 z m -5.713,-22.155 -0.614,0 c -2.844,0 -4.788,1.063 -5.715,1.988 -0.198,-1.323 -1.331,-1.988 -2.454,-1.988 -1.272,0 -2.533,0.795 -2.533,2.394 l 0,41.848 c 0,1.668 1.261,2.524 2.533,2.524 1.254,0 2.516,-0.856 2.516,-2.524 l 0,-13.571 c 1.13,1.391 3.465,2.195 5.799,2.195 l 0.468,0 C 0.269,10.711 5.049,5.913 5.049,0 l 0,-11.445 c 0,-5.921 -4.85,-10.71 -10.762,-10.71"
             inkscape:connector-curvature="0" /></g><g
           transform="translate(518.6377,327.9917)"
           id="g36"><path
             id="path38"
             style="fill:#264a95;fill-opacity:1;fill-rule:nonzero;stroke:none"
             d="m 0,0 c 0,3.259 -2.662,5.723 -5.602,5.723 l -0.674,0 c -3.113,0 -5.705,-2.533 -5.705,-5.654 l 0,-3.328 11.981,0 z m 2.507,-7.988 -14.488,0 0,-3.388 c 0,-3.129 2.523,-5.662 5.654,-5.662 l 0.656,0 c 2.594,0 4.34,1.538 5.187,3.397 0.484,1.133 1.331,1.599 2.213,1.599 1.314,0 2.576,-1.132 2.576,-2.593 0,-0.328 -0.051,-0.735 -0.258,-1.133 -1.591,-3.725 -5.257,-6.318 -9.718,-6.318 l -0.656,0 c -5.914,0 -10.719,4.789 -10.719,10.71 l 0,11.445 c 0,5.913 4.805,10.711 10.719,10.711 l 0.656,0 C 0.26,10.78 5.048,6.189 5.048,0 l 0,-5.454 c 0,-1.332 -1.123,-2.534 -2.541,-2.534"
             inkscape:connector-curvature="0" /></g><g
           transform="translate(548.6348,328.5889)"
           id="g40"><path
             id="path42"
             style="fill:#264a95;fill-opacity:1;fill-rule:nonzero;stroke:none"
             d="m 0,0 c 0,3.06 -2.664,5.126 -5.654,5.126 l -0.606,0 c -3.198,0 -5.704,-2.533 -5.704,-5.654 l 0,-11.446 c 0,-3.129 2.506,-5.661 5.635,-5.661 l 0.675,0 c 2.99,0 5.654,1.996 5.654,5.264 z m 2.523,-22.684 c -1.124,0 -2.316,0.666 -2.454,1.989 -0.934,-0.926 -2.871,-1.989 -5.723,-1.989 l -0.606,0 c -5.981,0 -10.769,4.789 -10.769,10.71 l 0,11.446 c 0,5.913 4.788,10.711 10.769,10.711 l 0.467,0 c 2.335,0 4.669,-0.804 5.793,-2.196 l 0,13.572 c 0,1.668 1.278,2.524 2.523,2.524 1.263,0 2.542,-0.856 2.542,-2.524 l 0,-41.848 c 0,-1.599 -1.279,-2.395 -2.542,-2.395"
             inkscape:connector-curvature="0" /></g><g
           transform="translate(580.9824,328.5889)"
           id="g44"><path
             id="path46"
             style="fill:#264a95;fill-opacity:1;fill-rule:nonzero;stroke:none"
             d="m 0,0 c 0,3.06 -2.663,5.126 -5.653,5.126 l -0.606,0 c -3.198,0 -5.723,-2.533 -5.723,-5.654 l 0,-11.446 c 0,-3.129 2.525,-5.661 5.654,-5.661 l 0.675,0 c 2.99,0 5.653,1.996 5.653,5.264 z m 2.523,-22.684 c -1.123,0 -2.315,0.666 -2.454,1.989 -0.934,-0.926 -2.87,-1.989 -5.722,-1.989 l -0.606,0 c -5.981,0 -10.771,4.789 -10.771,10.71 l 0,11.446 c 0,5.913 4.79,10.711 10.771,10.711 l 0.467,0 c 2.335,0 4.667,-0.804 5.792,-2.196 l 0,13.572 c 0,1.668 1.262,2.524 2.523,2.524 1.262,0 2.526,-0.856 2.526,-2.524 l 0,-41.848 c 0,-1.599 -1.264,-2.395 -2.526,-2.395"
             inkscape:connector-curvature="0" /></g><g
           transform="translate(613.3291,327.9917)"
           id="g48"><path
             id="path50"
             style="fill:#264a95;fill-opacity:1;fill-rule:nonzero;stroke:none"
             d="m 0,0 c 0,3.259 -2.661,5.723 -5.602,5.723 l -0.672,0 c -3.131,0 -5.706,-2.533 -5.706,-5.654 l 0,-3.328 11.98,0 z m 2.509,-7.988 -14.489,0 0,-3.388 c 0,-3.129 2.524,-5.662 5.653,-5.662 l 0.675,0 c 2.576,0 4.321,1.538 5.169,3.397 0.483,1.133 1.332,1.599 2.195,1.599 1.331,0 2.595,-1.132 2.595,-2.593 0,-0.328 -0.053,-0.735 -0.26,-1.133 -1.591,-3.725 -5.256,-6.318 -9.699,-6.318 l -0.675,0 c -5.913,0 -10.719,4.789 -10.719,10.71 l 0,11.445 c 0,5.913 4.806,10.711 10.719,10.711 l 0.675,0 C 0.26,10.78 5.049,6.189 5.049,0 l 0,-5.454 c 0,-1.332 -1.124,-2.534 -2.54,-2.534"
             inkscape:connector-curvature="0" /></g><g
           transform="translate(643.3262,328.5889)"
           id="g52"><path
             id="path54"
             style="fill:#264a95;fill-opacity:1;fill-rule:nonzero;stroke:none"
             d="m 0,0 c 0,3.06 -2.661,5.126 -5.654,5.126 l -0.604,0 c -3.18,0 -5.706,-2.533 -5.706,-5.654 l 0,-11.446 c 0,-3.129 2.526,-5.661 5.637,-5.661 l 0.673,0 c 2.993,0 5.654,1.996 5.654,5.264 z m 2.542,-22.684 c -1.142,0 -2.334,0.666 -2.473,1.989 -0.932,-0.926 -2.869,-1.989 -5.723,-1.989 l -0.604,0 c -5.982,0 -10.771,4.789 -10.771,10.71 l 0,11.446 c 0,5.913 4.789,10.711 10.771,10.711 l 0.466,0 c 2.334,0 4.651,-0.804 5.792,-2.196 l 0,13.572 c 0,1.668 1.28,2.524 2.542,2.524 1.245,0 2.523,-0.856 2.523,-2.524 l 0,-41.848 c 0,-1.599 -1.278,-2.395 -2.523,-2.395"
             inkscape:connector-curvature="0" /></g><g
           transform="translate(408.6294,245.4629)"
           id="g56"><path
             id="path58"
             style="fill:#264a95;fill-opacity:1;fill-rule:nonzero;stroke:none"
             d="m 0,0 -17.825,0 c -1.737,0 -3.198,1.54 -3.198,3.2 l 0,39.981 c 0,2.125 1.6,3.198 3.198,3.198 1.591,0 3.129,-1.073 3.129,-3.198 l 0,-36.852 14.696,0 C 2.127,6.329 3.199,4.722 3.199,3.131 3.199,1.591 2.127,0 0,0"
             inkscape:connector-curvature="0" /></g><g
           transform="translate(432.5215,260.2451)"
           id="g60"><path
             id="path62"
             style="fill:#264a95;fill-opacity:1;fill-rule:nonzero;stroke:none"
             d="m 0,0 c -4.648,-1.192 -9.974,-1.002 -9.974,-5.082 0,-2.179 1.72,-3.786 4.711,-3.786 l 0.615,0 c 2.59,0 4.648,2.074 4.648,4.667 z m 7.054,-15.197 c -2.188,0 -4.055,1.349 -4.988,2.472 -1.867,-1.468 -4.202,-2.472 -6.714,-2.472 l -0.615,0 c -5.506,0 -10.909,3.131 -10.909,9.994 l 0,0.346 c 0,9.352 10.582,9.507 15.307,10.65 C -0.069,5.983 0,6.57 0,7.037 c 0,2.662 -1.927,4.321 -4.321,4.321 l -0.476,0 c -1.918,0 -3.457,-0.655 -4.311,-2.591 -0.537,-1.315 -1.739,-1.92 -2.794,-1.92 -1.677,0 -3.327,1.314 -3.327,3.129 0,0.381 0.06,0.848 0.258,1.382 2.196,4.85 6.596,6.33 10.174,6.33 l 0.476,0 c 5.314,0 10.7,-3.788 10.7,-10.064 l 0,-14.678 c 0,-0.932 0.078,-1.591 1.062,-1.814 1.809,-0.399 2.603,-1.781 2.603,-3.198 0,-1.522 -1.063,-3.131 -2.99,-3.131"
             inkscape:connector-curvature="0" /></g><g
           transform="translate(465.8633,266.9707)"
           id="g64"><path
             id="path66"
             style="fill:#264a95;fill-opacity:1;fill-rule:nonzero;stroke:none"
             d="m 0,0 c 0,2.559 -2.066,4.633 -4.669,4.633 l -0.535,0 C -7.781,4.633 -9.846,2.508 -9.846,0 l 0,-10.927 c 0,-2.402 2.065,-4.667 4.642,-4.667 l 0.535,0 c 2.603,0 4.669,2.074 4.669,4.667 z m -4.669,-21.923 -0.449,0 c -1.081,0 -3.336,0.295 -4.728,1.765 -0.406,-1.073 -1.333,-1.765 -3.2,-1.765 -1.59,0 -3.189,1.159 -3.189,3.2 l 0,40.396 c 0,2.125 1.599,3.198 3.189,3.198 1.6,0 3.2,-1.073 3.2,-3.198 l 0,-12.44 c 1.392,1.253 3.647,1.729 4.728,1.729 l 0.449,0 C 1.392,10.962 6.388,6.104 6.388,0 l 0,-10.927 c 0,-6.051 -4.936,-10.996 -11.057,-10.996"
             inkscape:connector-curvature="0" /></g><g
           transform="translate(517.4277,273.7998)"
           id="g68"><path
             id="path70"
             style="fill:#264a95;fill-opacity:1;fill-rule:nonzero;stroke:none"
             d="m 0,0 -7.729,-26.677 c -0.397,-1.469 -1.849,-2.075 -2.973,-2.075 l -0.277,0 c -1.261,0 -2.542,0.536 -2.99,2.075 l -5.585,17.496 -5.723,-17.496 c -0.536,-1.66 -1.868,-2.075 -2.991,-2.075 l -0.207,0 c -1.272,0 -2.603,0.691 -2.991,2.075 L -39.125,0 c -0.139,0.346 -0.139,0.691 -0.139,1.004 0,1.746 1.348,3.129 3.268,3.129 1.192,0 2.464,-0.597 2.93,-2.196 l 5.128,-17.151 5.375,17.151 c 0.415,1.408 1.073,2.196 3.009,2.196 l 0.26,0 c 1.867,0 2.523,-0.788 2.99,-2.196 l 5.325,-17.151 4.911,17.151 c 0.484,1.599 1.746,2.196 2.938,2.196 1.937,0 3.25,-1.383 3.25,-3.129 C 0.12,0.691 0.12,0.346 0,0"
             inkscape:connector-curvature="0" /></g><g
           transform="translate(539.6611,267.1611)"
           id="g72"><path
             id="path74"
             style="fill:#264a95;fill-opacity:1;fill-rule:nonzero;stroke:none"
             d="m 0,0 c 0,2.542 -2.075,4.442 -4.65,4.442 l -0.554,0 c -2.575,0 -4.65,-1.9 -4.65,-4.442 l 0,-11.307 c 0,-2.541 2.075,-4.477 4.65,-4.477 l 0.554,0 c 2.575,0 4.65,1.936 4.65,4.477 z m -4.65,-22.113 -0.554,0 c -6.103,0 -11.031,4.738 -11.031,10.806 l 0,11.307 c 0,6.033 4.979,10.771 11.031,10.771 l 0.554,0 C 1.383,10.771 6.379,6.033 6.379,0 l 0,-11.307 c 0,-6.068 -4.927,-10.806 -11.029,-10.806"
             inkscape:connector-curvature="0" /></g><g
           transform="translate(568.0674,269.2188)"
           id="g76"><path
             id="path78"
             style="fill:#264a95;fill-opacity:1;fill-rule:nonzero;stroke:none"
             d="m 0,0 c -2.921,0 -1.123,2.385 -4.738,2.385 -1.849,0 -3.37,-0.725 -3.37,-2.974 l 0,-20.226 c 0,-2.197 -1.678,-3.356 -3.25,-3.356 -1.61,0 -3.131,1.159 -3.131,3.356 l 0,26.331 c 0,2.126 1.521,3.198 3.181,3.198 1.453,0 2.663,-0.415 3.2,-1.322 0.725,0.985 2.333,1.322 3.251,1.322 5.411,0 7.45,-2.853 8.125,-5.203 C 3.337,3.268 3.389,2.974 3.389,2.731 3.389,0.951 1.538,0 0,0"
             inkscape:connector-curvature="0" /></g><g
           transform="translate(596.9932,245.0479)"
           id="g80"><path
             id="path82"
             style="fill:#264a95;fill-opacity:1;fill-rule:nonzero;stroke:none"
             d="m 0,0 c -1.002,0 -1.988,0.484 -2.661,1.66 l -7.574,13.347 -3.267,-3.596 0,-8.211 c 0,-2.127 -1.66,-3.2 -3.268,-3.2 -1.59,0 -3.13,1.073 -3.13,3.2 l 0,40.396 c 0,2.125 1.54,3.198 3.13,3.198 1.608,0 3.268,-1.073 3.268,-3.198 l 0,-22.9 10.304,11.117 c 0.744,0.735 1.539,1.072 2.335,1.072 1.798,0 3.198,-1.599 3.198,-3.268 0,-0.71 -0.277,-1.471 -0.865,-2.127 L -5.723,19.848 2.871,4.79 C 3.198,4.271 3.337,3.665 3.337,3.131 3.337,1.471 1.937,0 0,0"
             inkscape:connector-curvature="0" /></g><g
           transform="translate(616.9453,245.0479)"
           id="g84"><path
             id="path86"
             style="fill:#264a95;fill-opacity:1;fill-rule:nonzero;stroke:none"
             d="m 0,0 -1.125,0 c -4.252,0 -8.713,2.663 -10.649,6.865 -0.259,0.534 -0.328,1.002 -0.328,1.469 0,1.781 1.608,3.077 3.267,3.077 3.268,0 3.182,-5.082 7.71,-5.082 l 1.125,0 c 3.734,0 5.204,1.538 5.204,3.665 0,3.665 -3.527,3.856 -6.241,4.443 -4.616,0.934 -10.392,2.766 -10.392,8.454 l 0,1.125 c 0,6.551 7.175,8.869 11.429,8.869 l 0.277,0 c 5.929,0 10.304,-3.389 10.304,-5.74 0,-1.522 -1.332,-2.905 -3.043,-2.905 -2.542,0 -2.992,2.316 -7.261,2.316 l -0.277,0 c -2.904,0 -5.048,-1.244 -5.048,-2.731 l 0,-0.657 c 0,-4.789 16.631,-0.812 16.631,-13.174 C 11.583,2.473 4.944,0 0,0"
             inkscape:connector-curvature="0" /></g></g></g></g></svg>